<?xml version="1.0" encoding="UTF-8"?>
<svg width="800px" height="800px" viewBox="0 0 24 24" version="1.1" xmlns="http://www.w3.org/2000/svg" xmlns:xlink="http://www.w3.org/1999/xlink">
    <g stroke="none" stroke-width="1" fill="none" fill-rule="evenodd">
        <path d="M19,3 L19,17 C19,18.6568542 17.6568542,20 16,20 C14.3431458,20 13,18.6568542 13,17 C13,15.3431458 14.3431458,14 16,14 C16.3506354,14 16.6872211,14.0601542 17,14.1707 L17,6.3 L8,8.5 L8,17 C8,18.6568542 6.65685425,20 5,20 C3.34314575,20 2,18.6568542 2,17 C2,15.3431458 3.34314575,14 5,14 C5.35063542,14 5.68722107,14.0601542 6,14.1707 L6,5 C6,4.62729957 6.19440483,4.28372849 6.50935025,4.10557281 C6.82429568,3.92741714 7.21052379,3.95343925 7.5,4.17 L19,10.5 L19,3 Z" fill="#FFFFFF" fill-rule="nonzero"></path>
    </g>
</svg>
