<?xml version="1.0" encoding="UTF-8"?>
<svg width="800px" height="800px" viewBox="0 0 24 24" version="1.1" xmlns="http://www.w3.org/2000/svg" xmlns:xlink="http://www.w3.org/1999/xlink">
    <g stroke="none" stroke-width="1" fill="none" fill-rule="evenodd">
        <path d="M12,2 C17.5228,2 22,6.47715 22,12 C22,17.5228 17.5228,22 12,22 C6.47715,22 2,17.5228 2,12 C2,6.47715 6.47715,2 12,2 Z M12,4 C7.58172,4 4,7.58172 4,12 C4,16.4183 7.58172,20 12,20 C16.4183,20 20,16.4183 20,12 C20,7.58172 16.4183,4 12,4 Z M16.5,10.5 L18,13.5 L16.5,16.5 L13.5,18 L10.5,16.5 L9,13.5 L10.5,10.5 L13.5,9 L16.5,10.5 Z M15.5,11.5 L13.5,10.5 L11.5,11.5 L10.5,13.5 L11.5,15.5 L13.5,16.5 L15.5,15.5 L16.5,13.5 L15.5,11.5 Z" fill="#FFFFFF" fill-rule="nonzero"></path>
    </g>
</svg>
