<?xml version="1.0" encoding="UTF-8"?>
<svg width="800px" height="800px" viewBox="0 0 24 24" version="1.1" xmlns="http://www.w3.org/2000/svg" xmlns:xlink="http://www.w3.org/1999/xlink">
    <g stroke="none" stroke-width="1" fill="none" fill-rule="evenodd">
        <path d="M17.5,2 C20.5375661,2 23,4.46243388 23,7.5 C23,10.5375661 20.5375661,13 17.5,13 L6.5,13 C3.46243388,13 1,10.5375661 1,7.5 C1,4.46243388 3.46243388,2 6.5,2 L17.5,2 Z M17.5,4 L6.5,4 C4.56700338,4 3,5.56700338 3,7.5 C3,9.43299662 4.56700338,11 6.5,11 L17.5,11 C19.4329966,11 21,9.43299662 21,7.5 C21,5.56700338 19.4329966,4 17.5,4 Z M16.5,5 C17.3284271,5 18,5.67157288 18,6.5 C18,7.32842712 17.3284271,8 16.5,8 C15.6715729,8 15,7.32842712 15,6.5 C15,5.67157288 15.6715729,5 16.5,5 Z M18.5,7 C19.3284271,7 20,7.67157288 20,8.5 C20,9.32842712 19.3284271,10 18.5,10 C17.6715729,10 17,9.32842712 17,8.5 C17,7.67157288 17.6715729,7 18.5,7 Z M14.5,7 C15.3284271,7 16,7.67157288 16,8.5 C16,9.32842712 15.3284271,10 14.5,10 C13.6715729,10 13,9.32842712 13,8.5 C13,7.67157288 13.6715729,7 14.5,7 Z M6.5,6 L6.5,8 L8.5,8 L8.5,10 L6.5,10 L6.5,12 L4.5,12 L4.5,10 L2.5,10 L2.5,8 L4.5,8 L4.5,6 L6.5,6 Z" fill="#FFFFFF" fill-rule="nonzero"></path>
    </g>
</svg>
