<?xml version="1.0" encoding="UTF-8"?>
<svg width="800px" height="800px" viewBox="0 0 24 24" version="1.1" xmlns="http://www.w3.org/2000/svg" xmlns:xlink="http://www.w3.org/1999/xlink">
    <g stroke="none" stroke-width="1" fill="none" fill-rule="evenodd">
        <path d="M4,5 L20,5 C21.1045695,5 22,5.8954305 22,7 L22,16 C22,17.1045695 21.1045695,18 20,18 L4,18 C2.8954305,18 2,17.1045695 2,16 L2,7 C2,5.8954305 2.8954305,5 4,5 Z M4,7 L4,16 L20,16 L20,7 L4,7 Z M9,21 L15,21 L15,19 L9,19 L9,21 Z M10,14 L10,9 L15,11.5 L10,14 Z" fill="#FFFFFF" fill-rule="nonzero"></path>
    </g>
</svg>
